<svg width="347" height="171" viewBox="0 0 547 271" fill="none" xmlns="http://www.w3.org/2000/svg">
<path d="M371.5 261C427.5 261 419.5 270 419.5 148C442.7 144 472.167 112.667 484 97.5H351.5" stroke="black" stroke-width="18" stroke-linecap="round"/>
<path d="M419.5 9V45" stroke="black" stroke-width="18" stroke-linecap="round"/>
<path d="M303 171.5H538" stroke="black" stroke-width="18" stroke-linecap="round"/>
<path d="M201 11V60" stroke="black" stroke-width="18" stroke-linecap="round"/>
<path d="M133 11V60" stroke="black" stroke-width="18" stroke-linecap="round"/>
<path d="M81 39.5H254.5" stroke="black" stroke-width="18" stroke-linecap="round"/>
<path d="M81 203H255.5" stroke="black" stroke-width="18" stroke-linecap="round"/>
<path d="M252.5 261.5C200 239 187 229 168.5 199.5" stroke="black" stroke-width="18" stroke-linecap="round"/>
<path d="M168.5 83.5C168.5 197 176.5 223.5 81 261.5" stroke="black" stroke-width="18" stroke-linecap="round"/>
<path d="M60 172.5C53 191.5 30.5 241 22 255.5" stroke="black" stroke-width="18" stroke-linecap="round"/>
<path d="M10 94C25.5 99 43.5 111 49.5 117.5" stroke="black" stroke-width="18" stroke-linecap="round"/>
<path d="M311 97.5V45H419.5H476H532.5V97.5" stroke="black" stroke-width="18" stroke-linecap="round"/>
<path d="M236 83H101.5V129.5H236V83Z" stroke="black" stroke-width="18" stroke-linecap="round"/>
<path d="M90.5 164.5H245.5" stroke="black" stroke-width="18" stroke-linecap="round"/>
<path d="M29 20C42.5 25.5 54 35.5 60 42" stroke="black" stroke-width="18" stroke-linecap="round"/>
</svg>

