<svg width="307" height="586" viewBox="0 0 307 586" fill="none" xmlns="http://www.w3.org/2000/svg">
<path d="M286.928 473.744C285.2 476.144 282.896 478.112 280.016 479.648C277.232 481.184 274.208 482.192 270.944 482.672C267.488 483.248 263.696 483.296 259.568 482.816C255.44 482.336 251.552 480.896 247.904 478.496C244.832 480.32 241.856 482.576 238.976 485.264C236.096 487.856 234.224 490.832 233.36 494.192C234.608 495.632 236.24 496.496 238.256 496.784C240.368 497.072 242.48 497.312 244.592 497.504C247.376 497.696 250.448 497.888 253.808 498.08C257.264 498.176 260.48 498.368 263.456 498.656C265.376 498.848 267.008 499.136 268.352 499.52C269.792 499.904 271.136 500.48 272.384 501.248C272.864 502.784 272.672 504.128 271.808 505.28C270.944 506.336 269.792 507.2 268.352 507.872C267.872 508.16 267.248 508.256 266.48 508.16C265.712 508.064 264.944 507.968 264.176 507.872C263.792 507.776 263.408 507.68 263.024 507.584C262.736 507.584 262.4 507.584 262.016 507.584C258.656 507.392 254.816 507.152 250.496 506.864C246.176 506.576 242 506.288 237.968 506C234.032 505.616 230.768 505.232 228.176 504.848C226.928 504.176 226.112 503.264 225.728 502.112C225.44 500.864 224.768 499.712 223.712 498.656C224.288 498.08 224.432 497.36 224.144 496.496C223.952 495.632 223.664 494.864 223.28 494.192C223.184 493.808 223.088 493.52 222.992 493.328C224.336 488.432 226.4 484.208 229.184 480.656C231.968 477.008 234.992 473.696 238.256 470.72C235.856 466.4 232.4 462.848 227.888 460.064C223.472 457.184 218.144 456.272 211.904 457.328C209.696 456.464 207.824 455.12 206.288 453.296C206.384 452.624 206.384 452 206.288 451.424C206.192 450.752 206.048 450.128 205.856 449.552C205.664 448.784 205.52 448.064 205.424 447.392C205.328 446.624 205.472 445.856 205.856 445.088C206.432 444.896 206.816 444.8 207.008 444.8C207.2 444.8 207.584 444.896 208.16 445.088C211.52 442.016 214.88 438.944 218.24 435.872C221.696 432.704 224.768 429.2 227.456 425.36C226.784 424.304 225.728 423.776 224.288 423.776C222.944 423.68 221.504 423.728 219.968 423.92C219.488 424.016 219.008 424.112 218.528 424.208C218.144 424.208 217.76 424.208 217.376 424.208C213.92 424.304 210.56 424.304 207.296 424.208C204.128 424.016 201.536 423.296 199.52 422.048C199.712 421.568 199.712 421.28 199.52 421.184C199.424 420.992 199.184 420.8 198.8 420.608C198.512 420.608 198.272 420.56 198.08 420.464C197.6 420.08 197.36 419.744 197.36 419.456C197.456 419.072 197.552 418.64 197.648 418.16C197.84 417.776 197.984 417.44 198.08 417.152C200.192 416 202.736 415.184 205.712 414.704C208.688 414.128 211.76 413.792 214.928 413.696C218.096 413.504 221.072 413.408 223.856 413.408C224.432 413.408 224.96 413.408 225.44 413.408C226.016 413.408 226.544 413.408 227.024 413.408C227.408 413.408 227.792 413.408 228.176 413.408C228.56 413.408 228.944 413.408 229.328 413.408C230.288 413.504 231.152 413.552 231.92 413.552C232.688 413.552 233.312 413.408 233.792 413.12C234.944 412.448 235.856 411.104 236.528 409.088C237.2 406.976 237.728 404.72 238.112 402.32C238.496 399.92 238.784 397.952 238.976 396.416C240.992 396.992 242.432 398.336 243.296 400.448C244.16 402.464 244.544 404.672 244.448 407.072C244.352 409.472 243.872 411.584 243.008 413.408C246.272 413.888 249.824 414.176 253.664 414.272C257.504 414.368 261.392 414.56 265.328 414.848C269.264 415.04 273.008 415.712 276.56 416.864C276.08 419.84 274.448 421.712 271.664 422.48C268.88 423.248 265.664 423.632 262.016 423.632C258.752 423.632 255.2 423.68 251.36 423.776C247.616 423.872 244.496 424.016 242 424.208C240.752 426.032 239.264 427.664 237.536 429.104C235.808 430.448 234.416 432.176 233.36 434.288C233.072 434 232.736 433.904 232.352 434C231.968 434.096 231.584 434.24 231.2 434.432C230.912 434.528 230.672 434.624 230.48 434.72C228.368 436.832 226.112 438.8 223.712 440.624C221.408 442.352 219.2 444.32 217.088 446.528C223.328 448.16 228.848 450.512 233.648 453.584C238.448 456.656 242.576 460.4 246.032 464.816C246.704 464.432 247.376 464.048 248.048 463.664C248.72 463.28 249.44 462.848 250.208 462.368C253.28 460.64 256.592 458.912 260.144 457.184C263.696 455.36 267.392 454.064 271.232 453.296C275.072 452.432 279.056 452.528 283.184 453.584C283.184 455.408 283.472 457.088 284.048 458.624C284.72 460.064 285.44 461.456 286.208 462.8C287.264 464.528 288.032 466.256 288.512 467.984C288.992 469.616 288.464 471.536 286.928 473.744ZM279.44 466.976C277.136 465.92 274.64 465.68 271.952 466.256C269.36 466.832 266.816 467.792 264.32 469.136C261.92 470.48 259.856 471.68 258.128 472.736C257.744 472.928 257.408 473.12 257.12 473.312C256.928 473.408 256.688 473.552 256.4 473.744C261.488 474.224 266.048 473.84 270.08 472.592C274.112 471.344 277.232 469.472 279.44 466.976ZM244.16 475.904C244.16 475.904 243.488 476.144 242.144 476.624C240.896 477.104 240.224 477.728 240.128 478.496C240.128 478.496 239.888 478.736 239.408 479.216C238.928 479.6 238.4 479.6 237.824 479.216C237.344 480.656 236.336 482 234.8 483.248C233.264 484.4 232.16 485.936 231.488 487.856C231.488 487.856 232.256 487.232 233.792 485.984C235.328 484.64 237.104 483.056 239.12 481.232C241.136 479.408 242.816 477.632 244.16 475.904ZM258.272 467.696C258.272 467.696 257.84 467.888 256.976 468.272C256.112 468.56 255.152 468.992 254.096 469.568C253.04 470.048 252.224 470.576 251.648 471.152C252.8 471.44 254.144 471.152 255.68 470.288C257.312 469.328 258.176 468.464 258.272 467.696Z" fill="black"/>
<path d="M306.08 166.064C304.16 168.56 301.088 169.904 296.864 170.096C292.64 170.192 288.128 170.096 283.328 169.808C280.16 169.52 277.04 169.328 273.968 169.232C270.896 169.136 268.064 169.376 265.472 169.952C267.872 173.024 270.464 175.472 273.248 177.296C276.032 179.024 278.864 180.512 281.744 181.76C284.72 182.912 287.6 184.16 290.384 185.504C293.168 186.752 295.664 188.384 297.872 190.4C300.176 192.32 302.096 194.912 303.632 198.176C303.056 200.576 301.568 202.256 299.168 203.216C296.768 204.272 293.984 204.704 290.816 204.512C287.744 204.416 284.672 203.744 281.6 202.496C278.624 201.344 276.272 199.808 274.544 197.888C273.104 196.352 271.472 194.24 269.648 191.552C267.92 188.864 266.096 186.08 264.176 183.2C262.352 180.224 260.576 177.584 258.848 175.28C257.12 172.976 255.632 171.44 254.384 170.672C253.904 170.288 253.376 170.336 252.8 170.816C252.512 171.008 252.32 171.152 252.224 171.248C251.264 172.592 250.496 173.6 249.92 174.272C249.44 174.944 249.008 176.144 248.624 177.872C247.28 178.544 246.176 179.648 245.312 181.184C244.448 182.624 243.536 184.016 242.576 185.36C241.712 186.608 240.56 187.28 239.12 187.376C239.024 189.296 237.92 191.312 235.808 193.424C233.792 195.536 231.44 197.312 228.752 198.752C226.064 200.288 223.712 201.104 221.696 201.2C220.16 201.296 218.624 201.2 217.088 200.912C215.648 200.72 214.208 200.48 212.768 200.192C211.904 200 211.04 199.808 210.176 199.616C209.408 199.52 208.64 199.424 207.872 199.328C209.408 198.368 211.232 197.408 213.344 196.448C215.552 195.488 217.424 195.008 218.96 195.008C218.96 194.72 218.864 194.432 218.672 194.144C218.576 193.76 218.672 193.52 218.96 193.424C221.264 192.176 223.52 190.592 225.728 188.672C227.936 186.656 229.952 184.64 231.776 182.624C233.696 180.512 235.232 178.64 236.384 177.008C237.632 175.28 238.304 174.032 238.4 173.264C236.384 173.072 234.32 173.12 232.208 173.408C230.096 173.696 227.984 173.984 225.872 174.272C223.088 174.752 220.4 175.088 217.808 175.28C215.216 175.472 212.816 175.184 210.608 174.416C208.496 173.552 206.72 171.776 205.28 169.088C208.448 168.032 212.192 167.312 216.512 166.928C220.928 166.544 225.392 166.208 229.904 165.92C234.416 165.632 238.352 165.152 241.712 164.48C242.576 163.712 243.152 162.704 243.44 161.456C243.728 160.112 243.968 158.816 244.16 157.568C237.152 158.624 231.776 158.96 228.032 158.576C224.384 158.192 221.888 156.224 220.544 152.672C224 151.904 227.792 151.424 231.92 151.232C236.144 151.04 240.656 150.896 245.456 150.8C245.84 149.744 246.032 148.688 246.032 147.632C246.128 146.48 246.176 145.28 246.176 144.032C244.352 144.608 242.528 144.992 240.704 145.184C238.88 145.28 237.104 145.472 235.376 145.76C233.744 146.048 232.304 146.768 231.056 147.92C229.424 147.344 227.984 146.624 226.736 145.76C225.488 144.896 224.048 143.888 222.416 142.736C222.416 142.64 222.416 142.496 222.416 142.304C222.608 140.288 222.752 137.792 222.848 134.816C222.944 131.744 222.752 129.2 222.272 127.184C220.736 126.224 219.344 125.12 218.096 123.872C216.848 122.624 215.36 121.664 213.632 120.992C219.2 117.248 226.64 115.232 235.952 114.944C236.048 113.216 236 111.44 235.808 109.616C235.616 107.792 235.28 106.256 234.8 105.008C232.976 105.296 231.104 105.872 229.184 106.736C227.36 107.504 225.776 108.272 224.432 109.04C222.992 109.232 221.408 108.848 219.68 107.888C217.952 106.832 216.32 105.536 214.784 104C213.248 102.464 212 100.88 211.04 99.2481C210.176 97.6161 209.792 96.2721 209.888 95.2161C213.824 96.1761 217.616 96.6561 221.264 96.6561C224.912 96.6561 228.992 96.4641 233.504 96.0801C233.408 93.7761 232.928 92.0001 232.064 90.7521C231.296 89.5041 230.384 88.4001 229.328 87.4401C228.368 86.4801 227.456 85.4241 226.592 84.2721C225.728 83.0241 225.104 81.2961 224.72 79.0881C225.872 78.3201 227.072 78.2241 228.32 78.8001C229.664 79.3761 231.056 80.1441 232.496 81.1041C233.072 81.4881 233.648 81.8721 234.224 82.2561C234.8 82.5441 235.376 82.8321 235.952 83.1201C237.584 83.7921 239.36 84.6081 241.28 85.5681C243.296 86.5281 244.688 87.7761 245.456 89.3121C245.456 90.2721 245.408 91.1841 245.312 92.0481C245.216 92.9121 244.976 93.9201 244.592 95.0721C246.896 95.3601 249.2 95.4081 251.504 95.2161C253.808 95.0241 256.112 94.7841 258.416 94.4961C260.048 94.3041 261.632 94.1121 263.168 93.9201C264.8 93.7281 266.48 93.6321 268.208 93.6321C268.304 93.1521 268.4 92.6721 268.496 92.1921C268.592 91.7121 268.688 91.2321 268.784 90.7521C269.168 89.2161 269.456 87.6801 269.648 86.1441C269.84 84.6081 269.792 83.1201 269.504 81.6801C269.216 80.3361 268.688 79.3281 267.92 78.6561C267.152 77.8881 266.432 77.1681 265.76 76.4961C265.088 75.8241 264.704 74.9601 264.608 73.9041C268.544 73.5201 272.24 74.4801 275.696 76.7841C279.152 78.9921 281.744 81.7761 283.472 85.1361C282.704 86.0961 281.84 87.1521 280.88 88.3041C280.016 89.4561 279.536 90.8481 279.44 92.4801C280.4 93.0561 281.648 93.0081 283.184 92.3361C284.816 91.6641 285.824 90.9921 286.208 90.3201C288.512 91.0881 290.864 91.7601 293.264 92.3361C295.664 92.9121 297.824 93.7761 299.744 94.9281C301.76 95.9841 303.152 97.6641 303.92 99.9681C300.656 100.352 297.776 100.592 295.28 100.688C292.784 100.784 290.384 100.88 288.08 100.976C286.448 100.976 284.768 100.976 283.04 100.976C281.312 100.976 279.44 101.072 277.424 101.264C276.464 103.952 274.976 106.016 272.96 107.456C271.04 108.8 268.832 110.096 266.336 111.344C265.376 110.768 264.992 109.856 265.184 108.608C265.376 107.36 265.664 106.16 266.048 105.008C266.144 104.432 266.24 103.904 266.336 103.424C266.528 102.848 266.624 102.368 266.624 101.984C264.704 101.696 262.544 101.696 260.144 101.984C257.84 102.272 255.536 102.56 253.232 102.848C251.504 103.136 249.872 103.376 248.336 103.568C246.8 103.76 245.456 103.808 244.304 103.712C242.96 105.536 242 107.504 241.424 109.616C240.944 111.728 239.84 113.504 238.112 114.944C243.104 114.176 247.712 113.84 251.936 113.936C256.16 113.936 259.904 113.792 263.168 113.504C265.568 113.312 267.776 112.592 269.792 111.344C271.904 110 274.448 109.28 277.424 109.184C280.592 108.992 283.952 109.568 287.504 110.912C291.056 112.256 293.792 114.176 295.712 116.672C295.328 117.056 294.752 117.488 293.984 117.968C293.312 118.352 292.304 118.64 290.96 118.832C289.04 119.888 287.696 121.52 286.928 123.728C286.16 125.936 285.536 128.288 285.056 130.784C284.576 133.28 283.76 135.44 282.608 137.264C282.512 137.744 282.704 138.176 283.184 138.56C283.76 138.848 283.952 139.28 283.76 139.856C280.208 141.392 276.32 142.208 272.096 142.304C267.872 142.4 263.072 142.736 257.696 143.312C256.928 143.792 256.496 144.704 256.4 146.048C256.4 147.296 256.304 148.496 256.112 149.648C257.648 149.552 259.136 149.408 260.576 149.216C262.016 148.928 263.408 148.688 264.752 148.496C269.072 147.824 273.152 147.488 276.992 147.488C280.928 147.392 285.008 148.64 289.232 151.232C289.52 152 289.52 152.528 289.232 152.816C289.04 153.104 288.8 153.344 288.512 153.536C287.936 153.92 287.648 154.352 287.648 154.832C284.48 154.544 281.312 154.544 278.144 154.832C274.976 155.024 271.76 155.312 268.496 155.696C266.48 155.888 264.368 156.08 262.16 156.272C260.048 156.464 257.888 156.608 255.68 156.704C255.584 156.992 255.44 157.424 255.248 158C255.056 158.864 254.864 159.728 254.672 160.592C254.48 161.456 254.432 162.128 254.528 162.608C257.696 162.704 261.152 162.704 264.896 162.608C268.64 162.512 272.24 162.224 275.696 161.744C279.152 161.168 281.936 160.304 284.048 159.152C287.888 159.248 291.872 159.872 296 161.024C300.128 162.176 303.488 163.856 306.08 166.064ZM206.432 176.432C206.432 177.776 206.24 179.216 205.856 180.752C205.472 182.192 205.04 183.68 204.56 185.216C203.792 187.424 203.12 189.68 202.544 191.984C202.064 194.192 202.064 196.496 202.544 198.896C202.448 198.896 202.352 198.944 202.256 199.04C201.872 199.232 201.536 199.424 201.248 199.616C200.96 199.904 200.864 200.336 200.96 200.912C199.328 201.104 197.312 200.528 194.912 199.184C192.608 197.84 190.256 196.16 187.856 194.144C185.456 192.224 183.248 190.304 181.232 188.384C179.312 186.368 177.92 184.784 177.056 183.632C178.208 183.728 179.744 183.824 181.664 183.92C183.584 184.016 185.504 184.208 187.424 184.496C189.44 184.688 191.024 185.072 192.176 185.648C194.768 183.44 196.64 180.704 197.792 177.44C198.944 174.08 200.144 170.72 201.392 167.36C201.968 167.84 202.352 168.608 202.544 169.664C202.736 170.624 203.072 171.68 203.552 172.832C204.032 173.984 204.992 175.184 206.432 176.432ZM206.432 144.032C203.456 145.376 200.864 145.52 198.656 144.464C196.448 143.408 194.288 142.112 192.176 140.576C191.024 139.808 189.872 139.04 188.72 138.272C187.568 137.504 186.368 136.928 185.12 136.544C183.488 133.76 181.856 130.88 180.224 127.904C178.688 124.928 176.672 122.48 174.176 120.56C178.016 120.848 181.856 121.52 185.696 122.576C189.632 123.536 193.184 124.976 196.352 126.896C199.52 128.72 202.016 131.072 203.84 133.952C205.76 136.736 206.624 140.096 206.432 144.032ZM272.96 117.968C271.808 118.448 270.176 118.832 268.064 119.12C266.048 119.408 263.936 119.6 261.728 119.696C259.52 119.792 257.504 119.936 255.68 120.128C257.504 122.144 258.32 124.544 258.128 127.328C258.032 130.112 257.792 132.656 257.408 134.96C257.312 135.344 257.216 135.728 257.12 136.112C257.12 136.496 257.072 136.832 256.976 137.12C259.472 137.12 261.824 136.832 264.032 136.256C266.336 135.68 268.448 135.2 270.368 134.816C271.136 133.376 271.712 131.6 272.096 129.488C272.48 127.28 272.72 125.12 272.816 123.008C273.008 120.896 273.056 119.216 272.96 117.968ZM246.32 137.696C246.608 136.544 246.704 134.96 246.608 132.944C246.512 130.832 246.32 128.72 246.032 126.608C245.84 124.4 245.504 122.576 245.024 121.136C243.008 121.232 240.8 121.472 238.4 121.856C236 122.144 234.128 122.624 232.784 123.296C232.976 125.408 233.12 128 233.216 131.072C233.408 134.048 233.552 136.352 233.648 137.984C234.704 138.272 235.712 138.416 236.672 138.416C237.632 138.32 238.64 138.176 239.696 137.984C240.56 137.888 241.52 137.792 242.576 137.696C243.728 137.6 244.976 137.6 246.32 137.696ZM207.584 106.448C202.976 105.488 198.896 103.184 195.344 99.5361C191.888 95.7921 189.632 91.2321 188.576 85.8561C192.128 86.5281 195.536 87.6801 198.8 89.3121C202.16 90.9441 204.752 93.1521 206.576 95.9361C208.4 98.7201 208.736 102.224 207.584 106.448Z" fill="black"/>
<path d="M302.912 314.288C301.664 315.152 300.128 315.584 298.304 315.584C296.48 315.584 294.704 315.488 292.976 315.296C287.12 314.528 281.024 314 274.688 313.712C268.448 313.328 261.488 313.328 253.808 313.712C253.232 313.904 252.848 314.288 252.656 314.864C252.464 315.344 252.08 315.68 251.504 315.872C251.984 320.576 252.272 325.424 252.368 330.416C252.56 335.312 252.224 339.92 251.36 344.24C250.688 347.696 249.584 350.816 248.048 353.6C246.608 356.384 244.64 358.688 242.144 360.512C240.512 360.32 239.12 360.08 237.968 359.792C236.912 359.6 235.232 359.504 232.928 359.504C232.736 359.12 232.832 358.688 233.216 358.208C233.312 358.016 233.36 357.776 233.36 357.488C233.456 357.2 233.264 356.864 232.784 356.48C232.304 356.672 232.112 357.056 232.208 357.632C232.304 358.208 232.16 358.592 231.776 358.784C228.224 357.728 224.816 356 221.552 353.6C218.384 351.296 215.6 348.608 213.2 345.536C213.584 345.344 214.16 345.296 214.928 345.392C215.696 345.392 216.416 345.488 217.088 345.68C217.664 345.296 218.48 345.152 219.536 345.248C220.688 345.248 221.936 345.296 223.28 345.392C224.912 345.488 226.64 345.584 228.464 345.68C230.384 345.68 232.16 345.392 233.792 344.816C235.904 344.048 237.536 342.896 238.688 341.36C239.936 339.824 240.896 338.048 241.568 336.032C242.528 332.864 242.864 329.36 242.576 325.52C242.384 321.584 242 317.84 241.424 314.288C238.832 314.288 235.616 314.48 231.776 314.864C227.936 315.152 223.904 315.584 219.68 316.16C215.552 316.736 211.568 317.504 207.728 318.464C206.96 318.656 206.192 318.896 205.424 319.184C204.656 319.472 203.888 319.76 203.12 320.048C202.064 320.432 201.056 320.768 200.096 321.056C199.136 321.344 198.224 321.488 197.36 321.488C194.864 321.392 192.8 320.624 191.168 319.184C189.632 317.648 188.192 315.968 186.848 314.144C185.504 312.32 183.92 310.784 182.096 309.536C182.096 309.44 182.144 309.296 182.24 309.104C182.528 308.624 182.672 308.24 182.672 307.952C182.768 307.664 182.672 307.184 182.384 306.512C184.4 306.032 186.464 306.032 188.576 306.512C190.688 306.896 192.704 307.376 194.624 307.952C195.584 308.24 196.448 308.528 197.216 308.816C198.08 309.008 198.896 309.152 199.664 309.248C200.72 309.344 202.016 309.344 203.552 309.248C205.088 309.056 206.72 308.864 208.448 308.672C209.792 308.48 211.088 308.336 212.336 308.24C213.584 308.048 214.784 307.952 215.936 307.952C219.488 307.76 223.328 307.424 227.456 306.944C231.584 306.368 235.472 305.984 239.12 305.792C238.832 303.488 238.112 301.616 236.96 300.176C235.904 298.736 234.656 297.488 233.216 296.432C231.872 295.376 230.576 294.272 229.328 293.12C228.08 291.872 227.12 290.288 226.448 288.368C226.832 288.368 227.312 288.32 227.888 288.224C228.464 288.128 228.944 288.128 229.328 288.224C230.96 288.608 232.544 289.52 234.08 290.96C235.712 292.4 237.536 293.312 239.552 293.696C242.72 291.68 245.552 289.376 248.048 286.784C250.64 284.192 252.992 281.408 255.104 278.432C249.92 279.008 244.688 279.296 239.408 279.296C234.224 279.296 229.472 279.824 225.152 280.88C224 281.168 222.848 281.696 221.696 282.464C220.64 283.232 219.584 283.616 218.528 283.616C216.224 283.52 214.496 282.752 213.344 281.312C212.192 279.776 211.232 277.904 210.464 275.696C209.792 273.488 208.928 271.424 207.872 269.504C213.632 271.52 219.584 272.48 225.728 272.384C231.872 272.192 238.064 271.808 244.304 271.232C246.128 271.04 247.904 270.896 249.632 270.8C251.456 270.608 253.28 270.464 255.104 270.368C255.872 270.08 256.448 269.6 256.832 268.928C257.216 268.16 257.888 267.728 258.848 267.632C261.44 268.496 263.888 269.312 266.192 270.08C268.496 270.848 270.368 272 271.808 273.536C273.344 274.976 274.16 277.28 274.256 280.448C270.032 283.616 265.856 286.928 261.728 290.384C257.696 293.744 253.088 296.576 247.904 298.88C248.672 299.648 249.44 300.464 250.208 301.328C250.976 302.192 251.552 303.296 251.936 304.64C253.568 304.544 255.248 304.544 256.976 304.64C258.704 304.736 260.432 304.832 262.16 304.928C264.368 305.024 266.528 305.12 268.64 305.216C270.848 305.312 273.056 305.264 275.264 305.072C275.648 304.688 275.936 304.256 276.128 303.776C276.416 303.2 276.752 302.768 277.136 302.48C278.288 302.096 279.872 301.952 281.888 302.048C284 302.144 286.112 302.384 288.224 302.768C290.336 303.152 292.064 303.632 293.408 304.208C293.792 304.304 294.128 304.688 294.416 305.36C294.704 306.032 295.04 306.464 295.424 306.656L295.856 305.648C297.776 306.896 299.36 308.192 300.608 309.536C301.952 310.784 302.72 312.368 302.912 314.288ZM302.48 272.528C302.288 273.2 301.712 273.728 300.752 274.112C299.792 274.496 298.832 275.072 297.872 275.84C297.392 276.224 296.864 276.704 296.288 277.28C295.808 277.76 295.328 278.288 294.848 278.864C293.312 280.4 291.728 281.888 290.096 283.328C288.464 284.672 286.736 285.2 284.912 284.912C283.664 283.376 282.176 282.176 280.448 281.312C278.816 280.352 277.328 279.2 275.984 277.856C277.424 274.88 279.008 272.096 280.736 269.504C282.56 266.912 283.904 263.84 284.768 260.288C282.752 258.368 280.064 257.264 276.704 256.976C273.344 256.592 269.696 256.544 265.76 256.832C264.704 256.928 263.6 257.024 262.448 257.12C261.392 257.216 260.336 257.312 259.28 257.408C256.496 257.696 253.664 257.984 250.784 258.272C248 258.464 245.312 258.464 242.72 258.272C242.048 258.464 241.52 258.896 241.136 259.568C240.848 260.144 240.464 260.624 239.984 261.008C239.504 260.72 239.024 260.336 238.544 259.856C238.16 259.376 237.824 258.944 237.536 258.56C235.04 259.232 232.112 259.664 228.752 259.856C225.488 259.952 222.224 260.048 218.96 260.144C215.792 260.144 213.104 260.384 210.896 260.864C210.128 260.96 209.024 261.344 207.584 262.016C206.144 262.688 205.232 263.264 204.848 263.744C204.656 263.936 204.608 264.416 204.704 265.184C204.704 265.568 204.704 266 204.704 266.48C204.8 266.864 204.752 267.296 204.56 267.776C204.464 268.16 203.936 269.024 202.976 270.368C202.112 271.616 201.44 272.816 200.96 273.968C200.384 275.792 199.712 277.904 198.944 280.304C198.176 282.704 197.552 285.056 197.072 287.36C196.688 289.568 196.544 291.392 196.64 292.832C196.736 293.312 196.88 293.792 197.072 294.272C197.264 294.656 197.504 295.04 197.792 295.424C198.176 296.192 198.512 297.008 198.8 297.872C199.088 298.64 198.944 299.456 198.368 300.32C194.144 299.36 190.832 297.488 188.432 294.704C186.032 291.824 183.872 288.896 181.952 285.92C183.776 284.384 185.6 282.272 187.424 279.584C189.248 276.896 190.4 274.16 190.88 271.376C191.264 269.36 191.168 267.392 190.592 265.472C190.016 263.552 188.672 261.92 186.56 260.576C186.944 260.288 186.992 259.904 186.704 259.424C186.512 259.136 186.416 258.848 186.416 258.56C187.088 257.312 188.336 256.496 190.16 256.112C191.984 255.632 193.712 255.632 195.344 256.112C200.24 255.056 205.184 254.384 210.176 254.096C215.264 253.808 220.112 253.568 224.72 253.376C229.328 253.184 233.36 252.848 236.816 252.368L236.672 248.336C235.424 246.896 233.888 245.744 232.064 244.88C230.336 244.016 228.656 243.152 227.024 242.288C225.488 241.328 224.288 240.128 223.424 238.688C225.056 237.152 227.072 236.048 229.472 235.376C231.872 234.704 234.32 234.512 236.816 234.8C239.408 235.088 241.712 235.856 243.728 237.104C245.744 238.352 247.136 240.128 247.904 242.432C246.368 243.488 245.648 244.832 245.744 246.464C245.84 248 245.504 249.632 244.736 251.36C247.424 251.936 250.448 252.176 253.808 252.08C257.168 251.984 260.384 251.84 263.456 251.648C265.472 251.456 267.344 251.36 269.072 251.36C270.8 251.264 272.24 251.264 273.392 251.36C274.256 251.648 274.928 251.648 275.408 251.36C275.888 251.072 276.32 250.736 276.704 250.352C276.992 250.064 277.28 249.824 277.568 249.632C277.856 249.344 278.192 249.152 278.576 249.056C279.92 248.768 281.552 248.768 283.472 249.056C285.488 249.344 287.456 249.872 289.376 250.64C291.392 251.408 292.928 252.32 293.984 253.376C294.272 253.664 294.368 254.096 294.272 254.672C294.272 255.152 294.368 255.536 294.56 255.824C295.04 256.592 295.76 257.216 296.72 257.696C297.776 258.176 298.544 258.8 299.024 259.568C299.6 260.336 300.176 261.632 300.752 263.456C301.424 265.184 301.952 266.912 302.336 268.64C302.72 270.368 302.768 271.664 302.48 272.528Z" fill="black"/>
<path d="M110.048 565.136C111.68 572.048 110.864 578.432 107.6 584.288C106.928 584.384 106.304 584.48 105.728 584.576C105.152 584.672 104.672 584.96 104.288 585.44C102.656 584.864 100.832 584.528 98.816 584.432C96.8 584.432 94.976 584.336 93.344 584.144C91.712 583.952 90.608 583.424 90.032 582.56C89.84 582.56 89.696 582.704 89.6 582.992C89.6 583.28 89.6 583.424 89.6 583.424C89.408 583.424 89.312 583.136 89.312 582.56C89.312 582.464 89.312 582.368 89.312 582.272C88.544 582.752 87.872 582.944 87.296 582.848C86.72 582.752 86.096 582.608 85.424 582.416C85.328 582.32 85.232 582.272 85.136 582.272C84.752 582.272 84.752 582.416 85.136 582.704C85.616 582.896 85.856 582.992 85.856 582.992C84.992 583.28 84.176 583.424 83.408 583.424C82.64 583.328 81.824 583.232 80.96 583.136C80.288 583.04 79.568 582.992 78.8 582.992C78.128 582.896 77.408 582.896 76.64 582.992C76.256 582.608 76.112 582.224 76.208 581.84C76.304 581.36 76.016 580.928 75.344 580.544C75.536 578.912 76.352 578 77.792 577.808C77.792 577.808 77.264 577.76 76.208 577.664C75.152 577.472 73.952 577.616 72.608 578.096C72.416 577.328 71.984 576.944 71.312 576.944C70.64 576.944 69.968 577.04 69.296 577.232C68.72 577.328 68.288 577.376 68 577.376C68.096 575.744 68.432 574.64 69.008 574.064C69.584 573.488 69.968 572.672 70.16 571.616C70.064 571.232 69.776 571.184 69.296 571.472C68.912 571.664 68.624 571.712 68.432 571.616C68.336 570.944 68.336 570.368 68.432 569.888C68.528 569.408 68.672 568.928 68.864 568.448C68.864 568.352 68.864 568.304 68.864 568.304L69.152 568.736C71.072 565.376 73.376 561.968 76.064 558.512C78.848 554.96 82.16 552.272 86 550.448C83.312 547.76 80.048 545.984 76.208 545.12C72.368 544.256 68.336 543.728 64.112 543.536C59.216 543.344 54.224 543.152 49.136 542.96C44.048 542.768 39.248 541.76 34.736 539.936C34.352 539.264 34.016 538.496 33.728 537.632C33.44 536.768 33.056 536 32.576 535.328C33.92 532.928 35.744 530.864 38.048 529.136C40.448 527.408 42.848 526.256 45.248 525.68C46.4 524.816 47.456 523.856 48.416 522.8C49.376 521.648 50.336 520.544 51.296 519.488C51.776 519.296 52.256 519.2 52.736 519.2C53.216 519.2 53.84 519.008 54.608 518.624C57.296 516.224 60.128 514.016 63.104 512C66.08 509.888 69.008 507.776 71.888 505.664C74.864 503.456 77.504 501.008 79.808 498.32C81.536 497.552 82.928 496.448 83.984 495.008C81.296 494.816 78.848 494.816 76.64 495.008C74.432 495.2 72.224 495.44 70.016 495.728C68.096 496.016 66.032 496.256 63.824 496.448C61.712 496.64 59.312 496.736 56.624 496.736C53.936 496.736 51.104 496.448 48.128 495.872C45.248 495.2 42.368 494.672 39.488 494.288C38.912 494.192 38.336 494.144 37.76 494.144C37.28 494.048 36.752 494 36.176 494C34.64 494 33.248 493.808 32 493.424C30.848 493.04 30.128 491.984 29.84 490.256C32.432 490.832 34.928 490.928 37.328 490.544C39.728 490.16 42.08 489.68 44.384 489.104C45.056 488.912 45.728 488.72 46.4 488.528C47.168 488.336 47.888 488.192 48.56 488.096C58.256 486.176 67.712 485.12 76.928 484.928C86.144 484.736 94.976 485.552 103.424 487.376C103.904 488.336 104.384 489.344 104.864 490.4C105.344 491.36 105.824 492.368 106.304 493.424C105.056 495.056 103.184 496.496 100.688 497.744C98.192 498.992 95.984 500 94.064 500.768C94.064 501.248 93.728 501.824 93.056 502.496C92.384 503.168 91.376 503.408 90.032 503.216C90.032 503.888 89.744 504.416 89.168 504.8C88.592 505.088 87.872 505.376 87.008 505.664C86.624 505.856 86.192 506.048 85.712 506.24C85.232 506.336 84.8 506.528 84.416 506.816C84.416 507.008 84.464 507.248 84.56 507.536C84.752 507.92 84.8 508.256 84.704 508.544C83.744 508.352 83.024 508.496 82.544 508.976C82.064 509.36 81.728 509.888 81.536 510.56C81.248 510.848 80.912 510.8 80.528 510.416C80.336 510.128 80.096 509.888 79.808 509.696C79.52 509.504 79.136 509.504 78.656 509.696C79.52 510.56 79.52 511.328 78.656 512C77.888 512.576 76.88 512.96 75.632 513.152C74.48 513.248 73.712 513.2 73.328 513.008C70.448 515.312 67.424 517.376 64.256 519.2C61.088 520.928 57.728 522.656 54.176 524.384C54.272 524.576 54.416 524.624 54.608 524.528C54.992 524.432 55.28 524.384 55.472 524.384C55.088 525.248 54.368 525.824 53.312 526.112C52.256 526.4 51.344 526.784 50.576 527.264C51.056 527.936 51.824 528.32 52.88 528.416C54.032 528.512 55.136 528.656 56.192 528.848C62.048 529.808 67.952 531.296 73.904 533.312C79.856 535.232 85.328 537.728 90.32 540.8C95.216 543.776 99.44 547.328 102.992 551.456C106.544 555.488 108.896 560.048 110.048 565.136ZM97.376 572.912C98.336 571.76 98.768 570.176 98.672 568.16C98.576 566.048 98.144 563.984 97.376 561.968C96.608 559.952 95.504 558.56 94.064 557.792C91.76 560.096 89.648 562.592 87.728 565.28C85.904 567.968 84.8 571.424 84.416 575.648C84.992 576.128 85.664 576.368 86.432 576.368C87.296 576.368 87.968 576.128 88.448 575.648C89.792 576.512 91.232 576.56 92.768 575.792C94.4 574.928 95.744 574.112 96.8 573.344C97.088 573.152 97.28 573.008 97.376 572.912ZM88.448 554.192C88.448 554.192 87.776 554.528 86.432 555.2C85.088 555.872 83.6 556.976 81.968 558.512C80.432 559.952 79.184 561.872 78.224 564.272C78.032 564.272 77.792 564.224 77.504 564.128C77.312 564.032 77.168 564.08 77.072 564.272C77.072 564.944 76.88 565.952 76.496 567.296C76.208 568.64 76.016 569.984 75.92 571.328C75.824 572.576 76.016 573.68 76.496 574.64C77.072 575.504 78.08 575.984 79.52 576.08C79.424 575.024 79.04 574.208 78.368 573.632C77.696 572.96 77.264 572.144 77.072 571.184C77.84 568.784 79.232 566.048 81.248 562.976C83.36 559.904 85.76 556.976 88.448 554.192ZM86.864 550.448C83.6 552.176 80.624 554.432 77.936 557.216C75.248 559.904 73.136 562.928 71.6 566.288C71.312 566.96 70.976 567.872 70.592 569.024C70.304 570.176 70.16 570.752 70.16 570.752C71.6 566.912 73.472 563.552 75.776 560.672C78.176 557.696 80.72 555.2 83.408 553.184C83.984 552.704 84.704 552.128 85.568 551.456C86.432 550.784 86.864 550.448 86.864 550.448ZM57.056 519.488C55.52 520.448 53.792 521.504 51.872 522.656C49.952 523.808 48.848 525.2 48.56 526.832C49.424 525.872 50.528 524.912 51.872 523.952C53.216 522.992 54.416 522.08 55.472 521.216C56.528 520.352 57.056 519.776 57.056 519.488Z" fill="black"/>
<path d="M111.2 348.944C109.856 350.672 108.08 351.68 105.872 351.968C103.664 352.256 101.408 352.4 99.104 352.4C98.24 352.4 97.376 352.4 96.512 352.4C95.648 352.4 94.832 352.448 94.064 352.544C94.064 353.024 94.064 353.552 94.064 354.128C94.16 354.608 94.208 355.136 94.208 355.712C94.304 356.768 94.352 357.824 94.352 358.88C94.352 359.84 94.112 360.656 93.632 361.328C94.688 362.288 95.216 364.112 95.216 366.8C95.216 369.488 95.168 372.032 95.072 374.432C94.976 375.008 94.928 375.44 94.928 375.728C95.696 376.976 95.936 378.128 95.648 379.184C95.36 380.24 95.024 381.296 94.64 382.352C94.448 382.832 94.256 383.312 94.064 383.792C93.872 384.272 93.728 384.752 93.632 385.232C93.536 385.52 93.632 385.712 93.92 385.808C94.208 385.904 94.448 385.952 94.64 385.952C94.832 386.048 94.928 386.096 94.928 386.096C94.928 386.384 94.832 386.72 94.64 387.104C94.544 387.296 94.448 387.536 94.352 387.824C94.352 388.016 94.4 388.352 94.496 388.832C94.592 389.312 94.544 389.744 94.352 390.128C94.256 390.512 94.112 390.896 93.92 391.28C93.728 391.856 93.536 392.48 93.344 393.152C93.248 393.728 93.488 394.448 94.064 395.312C93.392 395.888 93.056 396.512 93.056 397.184C93.056 397.856 93.104 398.528 93.2 399.2C93.296 399.776 93.344 400.208 93.344 400.496C92.672 400.88 92.24 401.408 92.048 402.08C91.856 402.656 91.712 403.28 91.616 403.952C91.424 404.624 91.232 405.2 91.04 405.68C90.848 406.16 90.416 406.4 89.744 406.4C89.744 406.592 89.888 406.784 90.176 406.976C90.464 407.072 90.56 407.264 90.464 407.552C90.08 408.032 89.696 408.608 89.312 409.28C88.928 409.856 88.544 410.48 88.16 411.152C87.2 412.784 86.096 414.32 84.848 415.76C83.696 417.104 81.968 417.584 79.664 417.2C78.992 417.584 78.56 418.304 78.368 419.36C78.272 420.32 78.224 421.28 78.224 422.24C78.128 422.816 78.032 423.344 77.936 423.824C77.936 424.208 77.888 424.544 77.792 424.832C77.696 424.832 77.552 424.832 77.36 424.832C75.44 425.12 73.76 425.264 72.32 425.264C70.976 425.168 69.872 424.352 69.008 422.816C69.104 422.528 69.248 422.048 69.44 421.376C69.824 420.32 70.16 419.12 70.448 417.776C70.832 416.432 70.976 415.04 70.88 413.6C70.688 413.12 70.064 412.88 69.008 412.88C69.392 412.304 69.296 411.968 68.72 411.872C68.144 411.68 67.376 411.536 66.416 411.44C65.168 411.344 63.824 411.2 62.384 411.008C61.04 410.72 60.032 410 59.36 408.848C58.208 409.52 57.104 409.856 56.048 409.856C54.992 409.856 53.696 410.048 52.16 410.432C52.064 409.472 51.488 408.992 50.432 408.992C49.376 408.896 48.608 408.416 48.128 407.552C48.224 407.36 48.368 407.264 48.56 407.264C48.848 407.264 48.992 407.12 48.992 406.832C48.8 406.352 48.512 406.352 48.128 406.832C47.648 407.216 47.264 407.36 46.976 407.264C45.536 406.304 44.912 404.48 45.104 401.792C45.2 399.104 45.872 396.272 47.12 393.296C48.368 390.224 49.52 387.968 50.576 386.528C50.672 386.432 50.864 386.432 51.152 386.528C51.536 386.528 51.728 386.528 51.728 386.528C52.208 385.952 52.544 385.232 52.736 384.368C52.928 383.408 53.696 382.928 55.04 382.928C55.232 382.448 55.328 381.968 55.328 381.488C55.328 380.912 55.472 380.432 55.76 380.048C56.528 379.664 57.152 379.328 57.632 379.04C58.208 378.656 58.736 378.272 59.216 377.888C60.176 377.312 61.088 376.832 61.952 376.448C62.816 375.968 63.968 375.728 65.408 375.728C67.136 375.728 68.576 376.208 69.728 377.168C70.976 378.128 72.176 379.136 73.328 380.192C74.576 381.152 76.064 381.776 77.792 382.064C80 386.96 81.104 392.096 81.104 397.472C81.104 399.296 81.008 400.928 80.816 402.368C80.624 403.712 80.528 404.384 80.528 404.384C82.256 401.888 83.6 399.104 84.56 396.032C85.52 392.96 86.24 389.648 86.72 386.096C87.488 380.912 87.872 375.44 87.872 369.68C87.968 363.92 88.16 358.208 88.448 352.544C86.336 352.544 84.224 352.592 82.112 352.688C80.096 352.784 78.08 352.88 76.064 352.976C72.224 353.264 68.288 353.456 64.256 353.552C60.224 353.648 55.952 353.456 51.44 352.976C51.056 352.88 50.528 352.832 49.856 352.832C49.184 352.736 48.608 352.64 48.128 352.544C42.944 351.392 37.712 350.048 32.432 348.512C27.152 346.88 22.4 345.152 18.176 343.328C20.864 342.56 23.6 342.032 26.384 341.744C29.264 341.456 32.144 341.312 35.024 341.312C39.728 341.312 44.48 341.264 49.28 341.168C54.176 341.072 59.168 340.928 64.256 340.736C67.904 340.64 71.696 340.544 75.632 340.448C79.568 340.352 83.6 340.256 87.728 340.16C87.728 339.776 87.728 339.296 87.728 338.72C87.728 338.048 87.728 337.376 87.728 336.704C87.632 335.648 87.584 334.592 87.584 333.536C87.584 332.384 87.632 331.376 87.728 330.512C89.264 331.376 90.272 332.864 90.752 334.976C91.328 337.088 91.76 338.816 92.048 340.16C94.736 340.256 97.232 340.448 99.536 340.736C101.84 340.928 104.528 341.264 107.6 341.744C108.656 342.992 109.328 344.24 109.616 345.488C110 346.736 110.528 347.888 111.2 348.944ZM73.04 397.184C73.04 395.84 72.896 394.544 72.608 393.296C72.416 392.048 71.984 390.944 71.312 389.984C70.832 390.176 70.448 390.08 70.16 389.696C70.064 389.408 69.92 389.264 69.728 389.264C68.288 390.224 66.8 391.472 65.264 393.008C63.824 394.544 62.528 396.032 61.376 397.472C60.224 398.912 59.408 400.016 58.928 400.784C58.544 400.88 58.256 400.784 58.064 400.496C57.872 400.208 57.776 400.064 57.776 400.064C57.968 400.64 58.016 401.024 57.92 401.216C57.92 401.408 57.824 401.552 57.632 401.648C57.344 401.84 57.104 402.08 56.912 402.368C57.296 402.752 57.68 402.848 58.064 402.656C58.544 402.368 58.976 402.08 59.36 401.792C59.936 401.216 60.32 401.024 60.512 401.216C59.84 401.6 59.456 402.128 59.36 402.8C59.264 403.376 59.12 403.904 58.928 404.384C59.792 404.576 60.944 404.816 62.384 405.104C63.92 405.392 65.312 405.776 66.56 406.256C68.672 407.024 69.584 408.272 69.296 410H71.744C71.936 407.792 72.176 405.632 72.464 403.52C72.848 401.312 73.04 399.2 73.04 397.184ZM61.808 376.88C61.424 377.552 60.848 378.032 60.08 378.32C59.408 378.512 58.88 378.944 58.496 379.616C59.168 379.424 59.936 379.04 60.8 378.464C61.76 377.888 62.096 377.36 61.808 376.88ZM58.208 380.912C57.632 380.816 57.104 381.104 56.624 381.776C56.24 382.352 56.24 382.736 56.624 382.928C56.912 382.64 57.248 382.256 57.632 381.776C58.016 381.2 58.208 380.912 58.208 380.912Z" fill="black"/>
<path d="M131.36 266.816C131.936 268.928 132.08 271.184 131.792 273.584C131.6 275.984 131.264 278.432 130.784 280.928C130.688 281.312 130.592 281.696 130.496 282.08C130.496 282.464 130.448 282.848 130.352 283.232C126.704 283.424 124.112 282.416 122.576 280.208C121.04 278 119.744 275.552 118.688 272.864C118.304 272.096 117.92 271.328 117.536 270.56C117.248 269.792 116.912 269.024 116.528 268.256C112.976 268.64 109.136 268.928 105.008 269.12C100.88 269.312 96.752 269.648 92.624 270.128C88.496 270.512 84.608 271.184 80.96 272.144C77.312 273.104 74.192 274.592 71.6 276.608C67.856 276.704 65.024 276.032 63.104 274.592C61.184 273.152 59.504 271.616 58.064 269.984C57.392 269.216 56.72 268.496 56.048 267.824C55.472 267.152 54.752 266.576 53.888 266.096C54.752 264.368 56.048 263.408 57.776 263.216C59.6 263.024 61.616 263.024 63.824 263.216C64.688 263.312 65.552 263.36 66.416 263.36C67.376 263.36 68.288 263.36 69.152 263.36C70.688 263.264 72.224 263.264 73.76 263.36C75.296 263.36 76.736 263.36 78.08 263.36C79.616 263.456 81.104 263.504 82.544 263.504C83.984 263.504 85.328 263.456 86.576 263.36C87.152 262.4 87.536 260.96 87.728 259.04C87.92 257.024 88.016 254.96 88.016 252.848C88.016 250.736 87.968 249.056 87.872 247.808C86.816 247.232 85.712 247.088 84.56 247.376C83.504 247.664 82.448 248 81.392 248.384C80.624 248.672 79.904 248.96 79.232 249.248C78.56 249.44 77.936 249.536 77.36 249.536C75.44 249.536 73.808 249.152 72.464 248.384C71.216 247.616 70.016 246.704 68.864 245.648C67.808 244.592 66.512 243.68 64.976 242.912C65.072 242.432 65.168 241.952 65.264 241.472C65.456 240.896 65.84 240.272 66.416 239.6C67.184 234.032 66.656 229.184 64.832 225.056C63.104 220.832 60.992 217.088 58.496 213.824C61.088 213.056 63.68 212.672 66.272 212.672C68.96 212.576 71.984 212.528 75.344 212.528C78.8 212.528 82.832 212.144 87.44 211.376C87.248 209.456 87.008 207.632 86.72 205.904C86.528 204.176 86.24 202.448 85.856 200.72C84.416 200.816 82.544 200.912 80.24 201.008C77.936 201.008 75.872 201.248 74.048 201.728C73.088 201.92 72.368 202.304 71.888 202.88C71.408 203.456 70.784 203.792 70.016 203.888C67.424 204.08 65.264 203.6 63.536 202.448C61.808 201.296 60.128 199.952 58.496 198.416C57.824 197.744 57.152 197.12 56.48 196.544C55.808 195.968 55.088 195.392 54.32 194.816C54.512 193.76 54.992 193.04 55.76 192.656C56.624 192.272 57.488 191.888 58.352 191.504C59.408 191.504 60.32 191.6 61.088 191.792C61.856 191.984 62.576 192.176 63.248 192.368C64.016 192.656 64.736 192.848 65.408 192.944C66.08 193.04 66.8 192.992 67.568 192.8C69.776 189.824 72.272 186.368 75.056 182.432C77.84 178.496 80.288 174.464 82.4 170.336C81.92 168.512 81.104 167.168 79.952 166.304C78.8 165.44 77.984 164.096 77.504 162.272C79.616 160.736 81.68 160.16 83.696 160.544C85.808 160.928 87.824 161.792 89.744 163.136C91.664 164.48 93.392 165.824 94.928 167.168C95.216 167.456 95.504 167.744 95.792 168.032C96.08 168.224 96.368 168.416 96.656 168.608C94.064 173.024 91.184 177.2 88.016 181.136C84.944 184.976 81.728 188.768 78.368 192.512C84.608 191.936 90.368 191.504 95.648 191.216C100.928 190.928 105.728 190.16 110.048 188.912C108.896 185.36 107.264 182.336 105.152 179.84C103.136 177.248 101.216 174.512 99.392 171.632C104.096 171.632 108.128 172.832 111.488 175.232C114.944 177.536 117.92 180.464 120.416 184.016C122.912 187.568 125.024 191.312 126.752 195.248C126.752 195.44 126.752 195.728 126.752 196.112C126.656 196.88 126.512 197.552 126.32 198.128C126.128 198.704 125.408 198.848 124.16 198.56C120.224 198.08 116.816 197.792 113.936 197.696C111.152 197.504 108.416 197.504 105.728 197.696C103.136 197.792 100.064 197.984 96.512 198.272C97.952 199.136 98.624 200.384 98.528 202.016C98.528 203.648 98.432 205.328 98.24 207.056C98.144 207.632 98.048 208.208 97.952 208.784C97.856 209.264 97.808 209.744 97.808 210.224C98.576 210.512 99.536 210.608 100.688 210.512C101.936 210.416 103.184 210.272 104.432 210.08C104.912 210.08 105.392 210.032 105.872 209.936C106.352 209.84 106.832 209.792 107.312 209.792C109.04 207.296 111.152 206 113.648 205.904C116.24 205.808 118.88 206.336 121.568 207.488C124.352 208.64 126.896 209.792 129.2 210.944C129.584 211.136 129.92 211.328 130.208 211.52C130.592 211.712 130.976 211.904 131.36 212.096C132.32 213.248 132.704 214.4 132.512 215.552C132.32 216.608 131.792 217.232 130.928 217.424C128.528 217.616 126.8 218 125.744 218.576C124.688 219.152 123.392 220.112 121.856 221.456C121.76 226.256 121.472 230.576 120.992 234.416C120.608 238.16 119.6 241.664 117.968 244.928C115.376 245.312 112.208 245.552 108.464 245.648C104.72 245.648 101.024 245.984 97.376 246.656C97.28 248.096 97.184 249.872 97.088 251.984C97.088 254.096 97.088 256.112 97.088 258.032C97.088 259.952 97.04 261.296 96.944 262.064C98.48 262.064 100.448 262.016 102.848 261.92C105.248 261.824 107.504 261.68 109.616 261.488C111.824 261.296 113.408 261.152 114.368 261.056C114.08 259.616 113.312 258.08 112.064 256.448C110.912 254.816 109.76 253.184 108.608 251.552C107.552 249.824 106.928 248.24 106.736 246.8C108.464 246.416 110.24 246.752 112.064 247.808C113.984 248.864 115.856 250.208 117.68 251.84C119.504 253.472 121.04 255.008 122.288 256.448C124.112 258.464 125.888 260.096 127.616 261.344C129.44 262.496 130.688 264.32 131.36 266.816ZM59.792 171.92C59.888 172.4 59.888 172.928 59.792 173.504C59.696 173.984 59.408 174.32 58.928 174.512C56.816 174.896 55.232 175.952 54.176 177.68C53.216 179.408 52.544 181.472 52.16 183.872C51.776 186.176 51.488 188.48 51.296 190.784C51.104 193.088 50.768 195.008 50.288 196.544C50.096 197.312 49.952 198.08 49.856 198.848C49.76 199.616 49.088 200.144 47.84 200.432C45.632 201.392 43.136 202.016 40.352 202.304C37.568 202.592 34.88 202.928 32.288 203.312C29.792 203.6 27.68 204.272 25.952 205.328C26.144 207.344 26.144 209.216 25.952 210.944C25.856 212.576 25.712 214.208 25.52 215.84C25.424 216.224 25.328 216.608 25.232 216.992C25.232 217.376 25.232 217.76 25.232 218.144C28.016 217.952 30.608 217.52 33.008 216.848C35.408 216.176 37.232 215.024 38.48 213.392C40.784 213.104 43.376 213.2 46.256 213.68C49.136 214.064 51.728 214.976 54.032 216.416C56.336 217.76 57.728 219.92 58.208 222.896C57.92 223.76 57.344 224.432 56.48 224.912C55.616 225.392 54.752 225.872 53.888 226.352C53.12 226.736 52.592 227.408 52.304 228.368C52.304 228.944 52.304 229.52 52.304 230.096C52.304 230.576 52.304 231.104 52.304 231.68C52.304 236.48 52.208 241.664 52.016 247.232C51.824 252.704 51.2 257.984 50.144 263.072C49.184 268.064 47.456 272.144 44.96 275.312C43.712 276.848 42.08 278.528 40.064 280.352C38.048 282.176 36.128 283.088 34.304 283.088C33.152 283.088 31.664 282.512 29.84 281.36C28.016 280.304 26.192 279.152 24.368 277.904C22.544 276.656 21.008 275.888 19.76 275.6C19.952 274.928 20.288 274.544 20.768 274.448C19.904 274.256 18.752 273.728 17.312 272.864C15.872 272 14.48 270.944 13.136 269.696C11.888 268.448 10.928 267.152 10.256 265.808C11.696 265.904 13.04 266.144 14.288 266.528C15.632 266.912 16.928 267.296 18.176 267.68C20 268.352 21.776 268.88 23.504 269.264C25.232 269.648 27.008 269.552 28.832 268.976C31.616 268.016 33.776 266.096 35.312 263.216C36.848 260.336 37.904 256.928 38.48 252.992C39.056 248.96 39.344 244.88 39.344 240.752C39.44 236.528 39.44 232.736 39.344 229.376C39.344 228.704 39.344 228.08 39.344 227.504C39.344 226.832 39.344 226.208 39.344 225.632C39.248 224.96 38.72 224.624 37.76 224.624C34.784 224.72 31.568 225.392 28.112 226.64C24.752 227.792 22.256 229.568 20.624 231.968C15.92 232.352 12.032 231.632 8.96 229.808C5.888 227.888 3.152 225.296 0.751999 222.032C2.96 221.264 5.12 220.976 7.232 221.168C9.344 221.264 11.6 220.88 14 220.016C14.768 218.096 15.248 216.08 15.44 213.968C15.632 211.76 15.68 209.312 15.584 206.624C15.2 206.336 14.768 206.096 14.288 205.904C13.904 205.616 13.52 205.328 13.136 205.04C11.792 204.176 10.64 203.36 9.68 202.592C8.816 201.728 8.528 200.672 8.816 199.424C9.968 198.08 11.792 197.264 14.288 196.976C16.784 196.592 19.52 196.4 22.496 196.4C25.568 196.4 28.496 196.256 31.28 195.968C34.16 195.68 36.56 194.96 38.48 193.808C38.768 191.024 39.056 188.048 39.344 184.88C39.632 181.712 39.824 178.976 39.92 176.672C38.096 176.288 36.128 176.336 34.016 176.816C31.904 177.296 29.792 177.872 27.68 178.544C25.664 179.216 23.648 179.84 21.632 180.416C19.616 180.896 17.744 180.992 16.016 180.704C13.904 178.88 11.792 176.96 9.68 174.944C7.664 172.928 6.368 170.144 5.792 166.592C7.232 166.304 8.672 166.352 10.112 166.736C11.552 167.12 12.992 167.6 14.432 168.176C15.392 168.56 16.352 168.944 17.312 169.328C18.368 169.616 19.376 169.808 20.336 169.904C24.56 170.288 28.4 169.856 31.856 168.608C35.408 167.36 38.48 165.632 41.072 163.424C43.568 163.424 46.064 163.664 48.56 164.144C51.152 164.528 53.456 165.344 55.472 166.592C57.584 167.744 59.024 169.52 59.792 171.92ZM108.896 216.992C107.36 216.992 105.488 217.136 103.28 217.424C101.168 217.616 99.44 217.952 98.096 218.432C98 219.968 97.904 222.128 97.808 224.912C97.808 227.6 97.808 230.336 97.808 233.12C97.808 235.808 97.808 238.016 97.808 239.744C99.344 239.648 100.928 239.504 102.56 239.312C104.288 239.024 105.92 238.688 107.456 238.304C108.224 234.944 108.752 231.536 109.04 228.08C109.424 224.528 109.376 220.832 108.896 216.992ZM88.448 240.032C88.448 239.456 88.448 238.88 88.448 238.304C88.448 237.632 88.448 237.008 88.448 236.432C88.448 233.264 88.4 230 88.304 226.64C88.304 223.28 88.112 220.832 87.728 219.296C86.192 219.392 84.176 219.632 81.68 220.016C79.184 220.4 77.168 220.832 75.632 221.312C75.92 223.904 76.304 226.88 76.784 230.24C77.36 233.6 77.696 236.96 77.792 240.32C78.368 240.32 78.944 240.32 79.52 240.32C80.192 240.32 80.864 240.32 81.536 240.32C82.688 240.32 83.84 240.32 84.992 240.32C86.24 240.224 87.392 240.128 88.448 240.032Z" fill="black"/>
<path d="M135.104 109.088C134.048 111.968 132.176 114.416 129.488 116.432C126.896 118.448 123.872 120.08 120.416 121.328C116.96 122.576 113.456 123.344 109.904 123.632C106.352 123.92 103.04 123.776 99.968 123.2C99.488 123.296 99.152 123.536 98.96 123.92C98.864 124.4 98.576 124.688 98.096 124.784C95.696 124.976 93.488 124.928 91.472 124.64C89.552 124.448 87.68 124.208 85.856 123.92C85.28 123.824 84.752 123.728 84.272 123.632C83.792 123.536 83.264 123.44 82.688 123.344C80 122.96 77.264 122.672 74.48 122.48C71.696 122.288 69.056 121.856 66.56 121.184C62.336 120.032 58.352 117.536 54.608 113.696C50.96 109.856 48.32 105.584 46.688 100.88C46.784 100.112 46.832 99.344 46.832 98.576C46.928 97.712 47.024 96.944 47.12 96.272C47.312 94.64 47.456 93.104 47.552 91.664C47.744 90.128 47.792 88.688 47.696 87.344C47.6 85.04 47.264 82.88 46.688 80.864C46.208 78.848 45.296 77.024 43.952 75.392C42.32 75.296 40.784 75.344 39.344 75.536C37.904 75.632 36.704 75.776 35.744 75.968C35.552 75.968 35.408 75.968 35.312 75.968C36.08 77.12 36.944 78.176 37.904 79.136C38.864 80.096 39.488 81.392 39.776 83.024C35.84 89.936 31.664 96.608 27.248 103.04C22.832 109.376 17.792 115.232 12.128 120.608C11.168 120.992 10.4 121.136 9.82399 121.04C9.34399 120.944 8.81599 120.752 8.23999 120.464C7.85599 120.368 7.42399 120.224 6.94399 120.032C6.46399 119.936 5.88799 119.888 5.21599 119.888C5.79199 118.064 6.79999 116.24 8.23999 114.416C9.67999 112.592 11.072 110.768 12.416 108.944C15.296 105.008 18.128 100.784 20.912 96.272C23.696 91.664 26.144 87.104 28.256 82.592C27.488 81.152 26.432 80.048 25.088 79.28C23.84 78.416 22.496 77.648 21.056 76.976C19.616 76.208 18.272 75.296 17.024 74.24C15.872 73.184 15.056 71.744 14.576 69.92C15.056 69.824 15.392 69.824 15.584 69.92C15.872 70.016 16.16 70.112 16.448 70.208C16.64 70.304 16.832 70.4 17.024 70.496C17.312 70.592 17.648 70.592 18.032 70.496C18.8 68.768 19.088 67.04 18.896 65.312C18.8 63.488 18.608 61.616 18.32 59.696C18.128 58.352 17.936 56.912 17.744 55.376C17.552 53.84 17.552 52.208 17.744 50.48C16.304 49.04 15.248 47.696 14.576 46.448C14 45.2 12.944 43.904 11.408 42.56C12.848 42.176 13.616 41.648 13.712 40.976C13.808 40.208 13.856 39.824 13.856 39.824C13.088 40.496 12.224 41.072 11.264 41.552C10.304 42.032 9.39199 42.224 8.52799 42.128C7.47199 41.936 6.70399 41.456 6.22399 40.688C5.74399 39.824 5.21599 39.008 4.63999 38.24C4.06399 37.376 3.10399 36.944 1.75999 36.944C2.33599 35.888 3.29599 35.216 4.63999 34.928C6.07999 34.64 7.51999 34.352 8.95999 34.064C9.43999 33.872 9.67999 33.632 9.67999 33.344C9.77599 33.056 9.77599 32.768 9.67999 32.48C9.58399 31.808 9.63199 31.376 9.82399 31.184C13.184 28.688 16.064 25.76 18.464 22.4C20.864 19.04 23.552 15.92 26.528 13.04C26.72 12.656 26.672 12.368 26.384 12.176C26.192 11.888 26.096 11.744 26.096 11.744C26.576 11.36 27.104 11.024 27.68 10.736C28.352 10.352 28.784 9.82401 28.976 9.152C28.976 8.00001 28.64 7.13601 27.968 6.56C27.392 5.984 26.816 5.40801 26.24 4.83201C25.664 4.256 25.28 3.488 25.088 2.528C25.952 2.24001 26.768 2.09601 27.536 2.09601C28.4 2 29.216 1.952 29.984 1.952C30.944 1.952 31.808 1.904 32.576 1.808C33.44 1.71201 34.16 1.328 34.736 0.656006C35.696 1.61601 36.752 2.43201 37.904 3.104C39.152 3.68 40.256 4.4 41.216 5.264C42.176 6.032 42.752 7.28 42.944 9.00801C48.992 7.376 54.56 6.992 59.648 7.856C64.736 8.624 68.528 11.312 71.024 15.92C69.776 17.648 68.096 18.656 65.984 18.944C63.872 19.232 62 19.856 60.368 20.816C59.216 22.064 58.16 23.696 57.2 25.712C56.24 27.728 55.424 29.648 54.752 31.472C54.176 33.296 53.696 34.64 53.312 35.504C57.824 34.352 62.528 34.544 67.424 36.08C72.32 37.52 76.496 39.632 79.952 42.416C79.184 43.28 78.176 43.952 76.928 44.432C75.68 44.912 74.48 45.44 73.328 46.016C72.176 46.592 71.312 47.456 70.736 48.608C71.696 48.512 73.28 48.32 75.488 48.032C77.792 47.648 80.24 47.36 82.832 47.168C83.024 43.232 83.072 39.104 82.976 34.784C82.88 30.464 82.256 26.528 81.104 22.976C80.912 22.4 80.672 21.872 80.384 21.392C80.096 20.816 79.808 20.288 79.52 19.808C78.944 18.656 78.416 17.552 77.936 16.496C77.552 15.344 77.648 14.192 78.224 13.04C81.776 14 84.704 15.584 87.008 17.792C89.312 19.904 91.424 22.208 93.344 24.704C93.248 28.256 93.152 31.856 93.056 35.504C92.96 39.152 92.624 42.512 92.048 45.584C94.16 45.68 96.08 45.68 97.808 45.584C99.632 45.392 101.36 45.2 102.992 45.008C105.488 44.816 107.888 44.72 110.192 44.72C112.496 44.624 114.848 45.008 117.248 45.872C118.208 47.408 119.504 48.656 121.136 49.616C122.768 50.48 124.016 51.728 124.88 53.36C124.784 54.512 124.256 55.232 123.296 55.52C122.336 55.712 121.28 55.856 120.128 55.952C119.264 56.048 118.4 56.144 117.536 56.24C116.768 56.336 116.192 56.672 115.808 57.248C114.848 61.952 114.416 66.896 114.512 72.08C114.704 77.264 114.416 82.448 113.648 87.632C113.456 88.976 113.024 90.704 112.352 92.816C111.776 94.832 111.008 96.896 110.048 99.008C109.088 101.024 107.984 102.752 106.736 104.192C105.584 105.536 104.384 106.208 103.136 106.208C101.888 106.208 100.208 105.728 98.096 104.768C95.984 103.712 94.16 102.656 92.624 101.6C91.568 100.832 90.704 99.872 90.032 98.72C89.36 97.472 88.592 96.512 87.728 95.84C87.44 95.648 86.912 95.552 86.144 95.552C85.568 95.552 85.232 95.504 85.136 95.408C84.944 95.216 85.04 94.928 85.424 94.544C85.712 94.256 85.808 94.064 85.712 93.968C85.328 93.392 84.752 93.008 83.984 92.816C83.312 92.528 82.592 92.288 81.824 92.096C80.096 93.728 78.608 95.408 77.36 97.136C76.208 98.768 74.816 100.016 73.184 100.88C72.224 101.36 71.168 101.648 70.016 101.744C68.96 101.84 67.616 101.648 65.984 101.168C69.344 95.216 72.656 88.736 75.92 81.728C79.184 74.624 81.248 66.848 82.112 58.4C79.712 57.728 77.648 57.008 75.92 56.24C74.192 55.376 72.512 54.272 70.88 52.928C70.688 54.08 70.448 55.28 70.16 56.528C69.968 57.776 69.776 59.024 69.584 60.272C69.008 62.864 68.48 65.456 68 68.048C67.616 70.64 67.52 73.04 67.712 75.248C66.752 74.864 65.696 74.72 64.544 74.816C63.488 74.912 62.624 75.2 61.952 75.68C61.376 74.624 60.272 74.144 58.64 74.24C57.104 74.24 56.096 74.288 55.616 74.384C56.48 75.632 57.056 77.072 57.344 78.704C57.728 80.24 57.968 81.92 58.064 83.744C58.064 85.28 58.016 86.816 57.92 88.352C57.824 89.888 57.728 91.472 57.632 93.104C57.44 95.12 57.296 97.136 57.2 99.152C57.104 101.072 57.152 102.896 57.344 104.624C60.416 106.832 64.448 108.464 69.44 109.52C74.432 110.48 79.664 110.912 85.136 110.816C91.088 110.624 96.848 109.904 102.416 108.656C108.08 107.408 112.496 105.632 115.664 103.328C117.104 101.024 117.68 98.768 117.392 96.56C117.2 94.256 116.816 91.904 116.24 89.504C116.144 88.928 116 88.352 115.808 87.776C115.712 87.2 115.616 86.624 115.52 86.048C115.52 86.048 116.048 86.576 117.104 87.632C118.256 88.688 119.264 89.6 120.128 90.368C121.76 91.808 123.392 93.344 125.024 94.976C126.656 96.608 127.856 98.528 128.624 100.736C129.776 100.832 130.688 101.216 131.36 101.888C132.032 102.56 132.752 103.136 133.52 103.616C133.328 104.576 133.328 105.392 133.52 106.064C133.808 106.64 134.096 107.168 134.384 107.648C134.768 108.224 135.008 108.704 135.104 109.088ZM103.712 54.08C102.176 54.176 100.448 54.272 98.528 54.368C96.608 54.464 94.496 54.752 92.192 55.232C91.616 58.496 90.896 62.144 90.032 66.176C89.264 70.208 88.304 74.288 87.152 78.416C86.096 82.448 84.8 86.24 83.264 89.792C85.76 90.176 88.304 90.512 90.896 90.8C93.488 91.088 96.272 91.184 99.248 91.088C101.264 87.824 102.656 84.128 103.424 80C104.192 75.776 104.528 71.456 104.432 67.04C104.432 62.528 104.192 58.208 103.712 54.08ZM48.416 16.208C45.536 15.152 42.896 14.912 40.496 15.488C38.096 15.968 35.84 16.976 33.728 18.512C30.56 20.816 27.584 23.84 24.8 27.584C22.112 31.232 19.376 34.496 16.592 37.376C16.4 37.568 16.16 37.856 15.872 38.24C15.584 38.528 15.2 38.864 14.72 39.248C18.944 39.152 23.168 38.96 27.392 38.672C31.712 38.288 36.512 37.76 41.792 37.088C42.752 33.44 43.76 29.888 44.816 26.432C45.968 22.88 47.168 19.472 48.416 16.208ZM58.208 42.56C56.48 42.464 54.848 42.512 53.312 42.704C51.872 42.8 50.432 42.896 48.992 42.992C48.32 42.992 47.696 43.04 47.12 43.136C46.544 43.232 45.92 43.28 45.248 43.28C46.496 45.584 47.024 48.56 46.832 52.208C46.736 55.76 46.544 59.264 46.256 62.72C46.16 63.488 46.064 64.256 45.968 65.024C45.968 65.792 45.92 66.56 45.824 67.328C47.744 66.656 49.376 66.464 50.72 66.752C52.064 66.944 53.456 67.328 54.896 67.904C55.28 68 55.616 68.144 55.904 68.336C56.288 68.432 56.672 68.528 57.056 68.624C57.056 64.112 57.152 59.84 57.344 55.808C57.632 51.68 57.92 47.264 58.208 42.56ZM38.912 44.144C36.224 44.432 33.776 44.576 31.568 44.576C29.456 44.576 27.728 45.104 26.384 46.16C27.056 49.424 27.392 53.216 27.392 57.536C27.392 61.76 27.296 65.552 27.104 68.912C28.16 68.72 29.696 68.624 31.712 68.624C33.728 68.528 35.744 68.48 37.76 68.48C38.24 64.064 38.432 59.744 38.336 55.52C38.336 51.2 38.528 47.408 38.912 44.144Z" fill="black"/>
</svg>

